<?xml version="1.0" encoding="utf-8"?>
<!-- Generator: Adobe Illustrator 23.0.3, SVG Export Plug-In . SVG Version: 6.00 Build 0)  -->
<svg version="1.1" id="Layer_1" xmlns="http://www.w3.org/2000/svg" xmlns:xlink="http://www.w3.org/1999/xlink" x="0px" y="0px"
	 viewBox="0 0 441 141" style="enable-background:new 0 0 441 141;" xml:space="preserve">
<style type="text/css">
	.st0{fill-rule:evenodd;clip-rule:evenodd;fill:#FFFFFF;}
</style>
<g>
	<path class="st0" d="M300.09,141.27l15.49-30.99h17.65l-15.49,30.99C317.73,141.27,299.98,141.27,300.09,141.27L300.09,141.27z
		 M328.82,83.82l41.85-83.71l41.85,83.71h-17.65L370.67,35.4l-24.21,48.42H328.82L328.82,83.82z M425.76,110.29l15.49,30.99h-17.65
		l-15.49-30.99H425.76L425.76,110.29z M220.57,0c38.98,0,70.58,31.6,70.58,70.58c0,4.52-0.43,8.95-1.24,13.23h-18.07
		c1.09-4.23,1.67-8.66,1.67-13.23c0-29.24-23.7-52.94-52.94-52.94h-52.94v66.17h-17.65V0H220.57L220.57,0z M278.94,110.29
		c-12.7,18.64-34.1,30.88-58.36,30.88v0.11l-70.58-0.11v-30.88h17.65v13.23h52.94v0c13.42,0,25.68-5,35.01-13.23H278.94
		L278.94,110.29z M0,141.17l15.44-30.88h17.65l-15.44,30.88C17.65,141.17-0.11,141.17,0,141.17L0,141.17z M28.67,83.82L70.58,0
		l41.91,83.82H94.85L70.58,35.29L46.32,83.82H28.67L28.67,83.82z M125.73,110.29l15.44,30.88h-17.65l-15.44-30.88H125.73
		L125.73,110.29z"/>
</g>
</svg>
